<?xml version="1.0" encoding="UTF-8"?>
<!DOCTYPE svg PUBLIC "-//W3C//DTD SVG 1.1//EN" "http://www.w3.org/Graphics/SVG/1.1/DTD/svg11.dtd">
<svg xmlns="http://www.w3.org/2000/svg" version="1.1" width="512px" height="512px" style="shape-rendering:geometricPrecision; text-rendering:geometricPrecision; image-rendering:optimizeQuality; fill-rule:evenodd; clip-rule:evenodd" xmlns:xlink="http://www.w3.org/1999/xlink">
<g><path style="opacity:0.954" fill="#e5bc5e" d="M 265.5,23.5 C 263.877,24.7794 262.21,26.1128 260.5,27.5C 261.246,28.7362 261.579,30.0695 261.5,31.5C 256.968,31.1818 252.634,31.5151 248.5,32.5C 243.463,32.4126 238.463,32.746 233.5,33.5C 233.5,30.8333 233.5,28.1667 233.5,25.5C 232.167,25.5 230.833,25.5 229.5,25.5C 241.283,23.7274 253.283,23.0607 265.5,23.5 Z"/></g>
<g><path style="opacity:0.996" fill="#d7a953" d="M 265.5,23.5 C 275.221,23.4591 284.887,24.1258 294.5,25.5C 292.9,26.6444 291.233,27.8111 289.5,29C 290.634,30.016 290.301,30.6827 288.5,31C 289.308,31.3076 289.975,31.8076 290.5,32.5C 286.217,33.4922 281.884,33.8256 277.5,33.5C 276.833,33.5 276.167,33.5 275.5,33.5C 266.682,32.5067 257.682,32.1734 248.5,32.5C 252.634,31.5151 256.968,31.1818 261.5,31.5C 261.579,30.0695 261.246,28.7362 260.5,27.5C 262.21,26.1128 263.877,24.7794 265.5,23.5 Z"/></g>
<g><path style="opacity:0.988" fill="#c79547" d="M 294.5,25.5 C 302.039,27.4411 309.706,28.9411 317.5,30C 322.108,31.0346 326.441,32.5346 330.5,34.5C 329.768,37.137 329.768,39.637 330.5,42C 327.843,42.1747 325.176,42.0081 322.5,41.5C 314.52,39.6722 306.52,37.8389 298.5,36C 291.32,35.4272 284.32,34.5939 277.5,33.5C 281.884,33.8256 286.217,33.4922 290.5,32.5C 289.975,31.8076 289.308,31.3076 288.5,31C 290.301,30.6827 290.634,30.016 289.5,29C 291.233,27.8111 292.9,26.6444 294.5,25.5 Z"/></g>
<g><path style="opacity:0.841" fill="#6e5c39" d="M 248.5,32.5 C 257.682,32.1734 266.682,32.5067 275.5,33.5C 260.487,33.3828 245.487,33.7161 230.5,34.5C 231.209,33.596 232.209,33.2627 233.5,33.5C 238.463,32.746 243.463,32.4126 248.5,32.5 Z"/></g>
<g><path style="opacity:1" fill="#181922" d="M 275.5,33.5 C 276.167,33.5 276.833,33.5 277.5,33.5C 284.32,34.5939 291.32,35.4272 298.5,36C 306.52,37.8389 314.52,39.6722 322.5,41.5C 345.113,48.8072 366.447,58.8072 386.5,71.5C 398.73,80.7219 410.397,90.7219 421.5,101.5C 426.496,106.664 431.329,111.997 436,117.5C 437.421,119.405 438.588,121.405 439.5,123.5C 433.815,126.667 427.815,129.167 421.5,131C 420.829,131.986 420.829,133.153 421.5,134.5C 416.901,128.562 411.901,122.895 406.5,117.5C 384.876,95.3441 359.543,78.6775 330.5,67.5C 320.341,63.7536 310.008,60.5869 299.5,58C 294.519,57.2522 289.519,56.7522 284.5,56.5C 265.867,54.0247 247.2,53.858 228.5,56C 223.242,56.6141 218.242,57.7808 213.5,59.5C 183.147,65.9302 156.147,78.9302 132.5,98.5C 124.265,104.559 116.431,111.225 109,118.5C 100.852,127.14 93.685,136.473 87.5,146.5C 61.3438,185.39 50.1771,228.39 54,275.5C 54.4108,280.519 54.9108,285.519 55.5,290.5C 55.665,293.85 55.4983,297.183 55,300.5C 49.3648,303.485 43.6982,306.485 38,309.5C 37.7679,308.263 37.2679,307.263 36.5,306.5C 29.3297,271.298 29.9963,236.298 38.5,201.5C 47.4635,171.239 61.4635,143.573 80.5,118.5C 90.134,107.199 100.467,96.532 111.5,86.5C 121.243,78.7487 131.243,71.4153 141.5,64.5C 165.13,50.6914 190.463,41.3581 217.5,36.5C 222.1,36.7204 226.433,36.0538 230.5,34.5C 245.487,33.7161 260.487,33.3828 275.5,33.5 Z"/></g>
<g><path style="opacity:0.957" fill="#4d4431" d="M 230.5,34.5 C 226.433,36.0538 222.1,36.7204 217.5,36.5C 221.567,34.9462 225.9,34.2796 230.5,34.5 Z"/></g>
<g><path style="opacity:0.995" fill="#f5d36b" d="M 229.5,25.5 C 230.833,25.5 232.167,25.5 233.5,25.5C 233.5,28.1667 233.5,30.8333 233.5,33.5C 232.209,33.2627 231.209,33.596 230.5,34.5C 225.9,34.2796 221.567,34.9462 217.5,36.5C 190.463,41.3581 165.13,50.6914 141.5,64.5C 140.25,64.4226 139.417,63.756 139,62.5C 138.667,62.8333 138.333,63.1667 138,63.5C 137.495,61.4817 136.995,59.4817 136.5,57.5C 164.941,39.7986 195.941,29.1319 229.5,25.5 Z"/></g>
<g><path style="opacity:0.975" fill="#b77d39" d="M 330.5,34.5 C 350.973,40.5716 369.973,49.5716 387.5,61.5C 385.407,64.6584 385.074,67.9917 386.5,71.5C 366.447,58.8072 345.113,48.8072 322.5,41.5C 325.176,42.0081 327.843,42.1747 330.5,42C 329.768,39.637 329.768,37.137 330.5,34.5 Z"/></g>
<g><path style="opacity:1" fill="#be9d52" d="M 284.5,56.5 C 280.03,57.4861 275.363,57.8195 270.5,57.5C 258.495,57.3335 246.495,57.5001 234.5,58C 229.41,58.427 224.41,59.2604 219.5,60.5C 217.735,59.5386 215.735,59.2053 213.5,59.5C 218.242,57.7808 223.242,56.6141 228.5,56C 247.2,53.858 265.867,54.0247 284.5,56.5 Z"/></g>
<g><path style="opacity:1" fill="#171922" d="M 270.5,57.5 C 284.923,58.4033 299.256,60.7366 313.5,64.5C 348.311,74.9826 378.644,92.9826 404.5,118.5C 410.546,125.21 416.212,132.21 421.5,139.5C 420.504,139.586 419.671,139.252 419,138.5C 416.205,140.646 413.039,141.813 409.5,142C 394.712,149.396 379.712,156.229 364.5,162.5C 364.833,148.817 364.499,135.15 363.5,121.5C 362.893,121.624 362.56,121.957 362.5,122.5C 334.26,138.072 306.26,154.072 278.5,170.5C 249.478,183.018 220.478,195.851 191.5,209C 186.204,211.153 180.871,212.987 175.5,214.5C 199.907,199.788 224.573,185.288 249.5,171C 221.636,154.569 193.636,138.402 165.5,122.5C 165.44,121.957 165.107,121.624 164.5,121.5C 163.5,154.493 163.167,187.493 163.5,220.5C 128.808,236.121 93.9749,251.454 59,266.5C 58.2917,265.619 57.4584,264.953 56.5,264.5C 54.9132,221.834 65.9132,182.834 89.5,147.5C 101.708,128.957 116.708,112.957 134.5,99.5C 159.881,80.3134 188.214,67.3134 219.5,60.5C 224.41,59.2604 229.41,58.427 234.5,58C 246.495,57.5001 258.495,57.3335 270.5,57.5 Z"/></g>
<g><path style="opacity:1" fill="#ae8140" d="M 284.5,56.5 C 289.519,56.7522 294.519,57.2522 299.5,58C 310.008,60.5869 320.341,63.7536 330.5,67.5C 331.463,68.3635 331.463,69.0302 330.5,69.5C 324.992,67.2187 319.325,65.5521 313.5,64.5C 299.256,60.7366 284.923,58.4033 270.5,57.5C 275.363,57.8195 280.03,57.4861 284.5,56.5 Z"/></g>
<g><path style="opacity:0.973" fill="#e7bf60" d="M 136.5,57.5 C 136.995,59.4817 137.495,61.4817 138,63.5C 138.333,63.1667 138.667,62.8333 139,62.5C 139.417,63.756 140.25,64.4226 141.5,64.5C 131.243,71.4153 121.243,78.7487 111.5,86.5C 110.183,83.7699 110.183,80.9365 111.5,78C 110.584,77.7216 109.918,77.2216 109.5,76.5C 117.664,69.007 126.664,62.6737 136.5,57.5 Z"/></g>
<g><path style="opacity:0.991" fill="#c48c41" d="M 387.5,61.5 C 401.964,69.9616 414.964,80.2949 426.5,92.5C 424.857,92.5198 423.524,91.8532 422.5,90.5C 421.511,94.1073 421.177,97.774 421.5,101.5C 410.397,90.7219 398.73,80.7219 386.5,71.5C 385.074,67.9917 385.407,64.6584 387.5,61.5 Z"/></g>
<g><path style="opacity:0.992" fill="#d7ab54" d="M 109.5,76.5 C 109.918,77.2216 110.584,77.7216 111.5,78C 110.183,80.9365 110.183,83.7699 111.5,86.5C 100.467,96.532 90.134,107.199 80.5,118.5C 77.6784,116.125 76.0118,113.459 75.5,110.5C 85.1395,97.5272 96.4728,86.1939 109.5,76.5 Z"/></g>
<g><path style="opacity:1" fill="#d3b55f" d="M 213.5,59.5 C 215.735,59.2053 217.735,59.5386 219.5,60.5C 188.214,67.3134 159.881,80.3134 134.5,99.5C 133.508,99.6716 132.842,99.3382 132.5,98.5C 156.147,78.9302 183.147,65.9302 213.5,59.5 Z"/></g>
<g><path style="opacity:1" fill="#a8783b" d="M 313.5,64.5 C 319.325,65.5521 324.992,67.2187 330.5,69.5C 331.463,69.0302 331.463,68.3635 330.5,67.5C 359.543,78.6775 384.876,95.3441 406.5,117.5C 405.508,117.328 404.842,117.662 404.5,118.5C 378.644,92.9826 348.311,74.9826 313.5,64.5 Z"/></g>
<g><path style="opacity:1" fill="#a28911" d="M 165.5,122.5 C 164.167,154.833 164.167,187.167 165.5,219.5C 165.158,220.338 164.492,220.672 163.5,220.5C 163.167,187.493 163.5,154.493 164.5,121.5C 165.107,121.624 165.44,121.957 165.5,122.5 Z"/></g>
<g><path style="opacity:1" fill="#ecc408" d="M 165.5,122.5 C 193.636,138.402 221.636,154.569 249.5,171C 224.573,185.288 199.907,199.788 175.5,214.5C 172.186,216.132 168.853,217.799 165.5,219.5C 164.167,187.167 164.167,154.833 165.5,122.5 Z"/></g>
<g><path style="opacity:1" fill="#ecc407" d="M 362.5,122.5 C 363.498,154.996 363.832,187.662 363.5,220.5C 344.107,209.474 324.774,198.474 305.5,187.5C 296.331,182.083 287.331,176.417 278.5,170.5C 306.26,154.072 334.26,138.072 362.5,122.5 Z"/></g>
<g><path style="opacity:0.966" fill="#d19d4a" d="M 426.5,92.5 C 439.739,105.734 451.073,120.4 460.5,136.5C 457.852,138.798 457.852,141.132 460.5,143.5C 460.154,144.696 459.654,144.696 459,143.5C 458.802,145.382 458.302,147.048 457.5,148.5C 451.745,139.99 445.745,131.657 439.5,123.5C 438.588,121.405 437.421,119.405 436,117.5C 431.329,111.997 426.496,106.664 421.5,101.5C 421.177,97.774 421.511,94.1073 422.5,90.5C 423.524,91.8532 424.857,92.5198 426.5,92.5 Z"/></g>
<g><path style="opacity:1" fill="#b99049" d="M 132.5,98.5 C 132.842,99.3382 133.508,99.6716 134.5,99.5C 116.708,112.957 101.708,128.957 89.5,147.5C 88.5084,147.672 87.8417,147.338 87.5,146.5C 93.685,136.473 100.852,127.14 109,118.5C 116.431,111.225 124.265,104.559 132.5,98.5 Z"/></g>
<g><path style="opacity:1" fill="#111115" d="M 421.5,139.5 C 427.284,146.963 432.284,154.963 436.5,163.5C 429.986,167.766 422.986,171.6 415.5,175C 413.833,175.333 412.167,175.667 410.5,176C 395.306,183.133 379.972,189.966 364.5,196.5C 364.5,185.167 364.5,173.833 364.5,162.5C 379.712,156.229 394.712,149.396 409.5,142C 413.039,141.813 416.205,140.646 419,138.5C 419.671,139.252 420.504,139.586 421.5,139.5 Z"/></g>
<g><path style="opacity:0.978" fill="#c28c42" d="M 75.5,110.5 C 76.0118,113.459 77.6784,116.125 80.5,118.5C 61.4635,143.573 47.4635,171.239 38.5,201.5C 37.8058,199.536 37.8058,197.702 38.5,196C 37.8333,195.667 37.1667,195.333 36.5,195C 39.1667,193.333 39.1667,191.667 36.5,190C 39.2465,187.077 38.9131,184.577 35.5,182.5C 44.5395,155.982 57.8728,131.982 75.5,110.5 Z"/></g>
<g><path style="opacity:1" fill="#111011" d="M 439.5,123.5 C 445.745,131.657 451.745,139.99 457.5,148.5C 494.465,221.243 494.798,294.243 458.5,367.5C 444.989,391.806 427.656,413.14 406.5,431.5C 381.728,452.556 353.728,467.889 322.5,477.5C 307.15,481.97 291.484,484.636 275.5,485.5C 260.484,485.666 245.484,485.333 230.5,484.5C 229.5,484.5 228.5,484.5 227.5,484.5C 190.043,479.093 156.043,465.427 125.5,443.5C 115.834,435.984 106.501,427.984 97.5,419.5C 81.4359,403.448 68.1025,385.448 57.5,365.5C 47.9721,346.769 40.9721,327.102 36.5,306.5C 37.2679,307.263 37.7679,308.263 38,309.5C 43.6982,306.485 49.3648,303.485 55,300.5C 55.4983,297.183 55.665,293.85 55.5,290.5C 58.2151,308.645 63.5484,325.978 71.5,342.5C 80.9426,364.592 93.9426,384.259 110.5,401.5C 141.172,433.509 178.505,453.509 222.5,461.5C 226.919,462.972 231.586,463.638 236.5,463.5C 303.988,469.229 361.322,447.895 408.5,399.5C 457.86,343.394 474.027,278.728 457,205.5C 449.392,179.617 437.558,155.95 421.5,134.5C 420.829,133.153 420.829,131.986 421.5,131C 427.815,129.167 433.815,126.667 439.5,123.5 Z"/></g>
<g><path style="opacity:1" fill="#0f0e10" d="M 436.5,163.5 C 449.199,185.766 457.032,209.766 460,235.5C 465.412,298.269 447.245,352.936 405.5,399.5C 361.449,443.527 308.116,464.194 245.5,461.5C 192.919,457.502 148.252,436.835 111.5,399.5C 95.8367,382.185 83.1701,362.852 73.5,341.5C 71.4987,336.495 69.4987,331.495 67.5,326.5C 99.3749,312.434 131.375,298.768 163.5,285.5C 163.333,305.169 163.5,324.836 164,344.5C 192.418,327.707 220.918,311.041 249.5,294.5C 222.779,278.811 196.113,263.144 169.5,247.5C 174.581,245.626 179.248,243.293 183.5,240.5C 209.171,255.335 234.838,270.169 260.5,285C 262.044,286.187 263.711,286.52 265.5,286C 295.669,268.081 326.003,250.414 356.5,233C 334.77,220.14 313.103,207.307 291.5,194.5C 296.241,192.153 300.907,189.819 305.5,187.5C 324.774,198.474 344.107,209.474 363.5,220.5C 364.492,212.684 364.826,204.684 364.5,196.5C 379.972,189.966 395.306,183.133 410.5,176C 412.167,175.667 413.833,175.333 415.5,175C 422.986,171.6 429.986,167.766 436.5,163.5 Z"/></g>
<g><path style="opacity:1" fill="#14161c" d="M 278.5,170.5 C 287.331,176.417 296.331,182.083 305.5,187.5C 300.907,189.819 296.241,192.153 291.5,194.5C 282.726,189.944 274.06,185.111 265.5,180C 264.167,179.333 262.833,179.333 261.5,180C 231.833,197.167 202.167,214.333 172.5,231.5C 171.289,232.274 171.289,233.107 172.5,234C 176.23,236.193 179.897,238.36 183.5,240.5C 179.248,243.293 174.581,245.626 169.5,247.5C 167.742,247.123 166.075,246.456 164.5,245.5C 163.548,247.045 163.215,248.712 163.5,250.5C 129.197,265.065 95.0305,280.065 61,295.5C 60.79,293.942 60.29,292.609 59.5,291.5C 57.5234,282.75 56.5234,273.75 56.5,264.5C 57.4584,264.953 58.2917,265.619 59,266.5C 93.9749,251.454 128.808,236.121 163.5,220.5C 164.492,220.672 165.158,220.338 165.5,219.5C 168.853,217.799 172.186,216.132 175.5,214.5C 180.871,212.987 186.204,211.153 191.5,209C 220.478,195.851 249.478,183.018 278.5,170.5 Z"/></g>
<g><path style="opacity:1" fill="#645710" d="M 362.5,122.5 C 362.56,121.957 362.893,121.624 363.5,121.5C 364.499,135.15 364.833,148.817 364.5,162.5C 364.5,173.833 364.5,185.167 364.5,196.5C 364.826,204.684 364.492,212.684 363.5,220.5C 363.832,187.662 363.498,154.996 362.5,122.5 Z"/></g>
<g><path style="opacity:1" fill="#bd9248" d="M 406.5,117.5 C 411.901,122.895 416.901,128.562 421.5,134.5C 437.558,155.95 449.392,179.617 457,205.5C 474.027,278.728 457.86,343.394 408.5,399.5C 407.5,399.5 406.5,399.5 405.5,399.5C 447.245,352.936 465.412,298.269 460,235.5C 457.032,209.766 449.199,185.766 436.5,163.5C 432.284,154.963 427.284,146.963 421.5,139.5C 416.212,132.21 410.546,125.21 404.5,118.5C 404.842,117.662 405.508,117.328 406.5,117.5 Z"/></g>
<g><path style="opacity:0.979" fill="#dbab52" d="M 460.5,136.5 C 489.763,185.663 500.263,238.997 492,296.5C 487.363,324.87 477.53,351.87 462.5,377.5C 461.213,376.232 460.213,376.565 459.5,378.5C 458.511,374.893 458.177,371.226 458.5,367.5C 494.798,294.243 494.465,221.243 457.5,148.5C 458.302,147.048 458.802,145.382 459,143.5C 459.654,144.696 460.154,144.696 460.5,143.5C 457.852,141.132 457.852,138.798 460.5,136.5 Z"/></g>
<g><path style="opacity:1" fill="#ecc407" d="M 291.5,194.5 C 313.103,207.307 334.77,220.14 356.5,233C 326.003,250.414 295.669,268.081 265.5,286C 263.711,286.52 262.044,286.187 260.5,285C 234.838,270.169 209.171,255.335 183.5,240.5C 179.897,238.36 176.23,236.193 172.5,234C 171.289,233.107 171.289,232.274 172.5,231.5C 202.167,214.333 231.833,197.167 261.5,180C 262.833,179.333 264.167,179.333 265.5,180C 274.06,185.111 282.726,189.944 291.5,194.5 Z"/></g>
<g><path style="opacity:0.996" fill="#b87d39" d="M 35.5,182.5 C 38.9131,184.577 39.2465,187.077 36.5,190C 39.1667,191.667 39.1667,193.333 36.5,195C 37.1667,195.333 37.8333,195.667 38.5,196C 37.8058,197.702 37.8058,199.536 38.5,201.5C 29.9963,236.298 29.3297,271.298 36.5,306.5C 40.9721,327.102 47.9721,346.769 57.5,365.5C 56.8826,365.389 56.3826,365.056 56,364.5C 55.8238,368.688 55.3238,372.688 54.5,376.5C 20.05,314.406 13.7167,249.739 35.5,182.5 Z"/></g>
<g><path style="opacity:1" fill="#9d6c35" d="M 87.5,146.5 C 87.8417,147.338 88.5084,147.672 89.5,147.5C 65.9132,182.834 54.9132,221.834 56.5,264.5C 56.5234,273.75 57.5234,282.75 59.5,291.5C 60.4134,303.493 63.0801,315.16 67.5,326.5C 69.4987,331.495 71.4987,336.495 73.5,341.5C 72.0755,339.969 71.4088,340.302 71.5,342.5C 63.5484,325.978 58.2151,308.645 55.5,290.5C 54.9108,285.519 54.4108,280.519 54,275.5C 50.1771,228.39 61.3438,185.39 87.5,146.5 Z"/></g>
<g><path style="opacity:1" fill="#61530d" d="M 363.5,245.5 C 364.83,278.336 364.83,311.336 363.5,344.5C 362.893,344.376 362.56,344.043 362.5,343.5C 363.498,311.004 363.832,278.338 363.5,245.5 Z"/></g>
<g><path style="opacity:1" fill="#eac307" d="M 169.5,247.5 C 196.113,263.144 222.779,278.811 249.5,294.5C 220.918,311.041 192.418,327.707 164,344.5C 163.5,324.836 163.333,305.169 163.5,285.5C 163.5,273.833 163.5,262.167 163.5,250.5C 163.215,248.712 163.548,247.045 164.5,245.5C 166.075,246.456 167.742,247.123 169.5,247.5 Z"/></g>
<g><path style="opacity:1" fill="#ecc407" d="M 363.5,245.5 C 363.832,278.338 363.498,311.004 362.5,343.5C 334.132,327.654 306.132,311.321 278.5,294.5C 306.725,277.89 335.058,261.557 363.5,245.5 Z"/></g>
<g><path style="opacity:1" fill="#111116" d="M 163.5,250.5 C 163.5,262.167 163.5,273.833 163.5,285.5C 131.375,298.768 99.3749,312.434 67.5,326.5C 63.0801,315.16 60.4134,303.493 59.5,291.5C 60.29,292.609 60.79,293.942 61,295.5C 95.0305,280.065 129.197,265.065 163.5,250.5 Z"/></g>
<g><path style="opacity:1" fill="#ecc407" d="M 263.5,302.5 C 294.636,320.236 325.636,338.236 356.5,356.5C 325.517,374.333 294.683,392.333 264,410.5C 233.085,392.626 202.251,374.626 171.5,356.5C 202.262,338.46 232.929,320.46 263.5,302.5 Z"/></g>
<g><path style="opacity:1" fill="#b28642" d="M 73.5,341.5 C 83.1701,362.852 95.8367,382.185 111.5,399.5C 110.662,399.842 110.328,400.508 110.5,401.5C 93.9426,384.259 80.9426,364.592 71.5,342.5C 71.4088,340.302 72.0755,339.969 73.5,341.5 Z"/></g>
<g><path style="opacity:0.985" fill="#cb9b4a" d="M 57.5,365.5 C 68.1025,385.448 81.4359,403.448 97.5,419.5C 96.5041,419.586 95.6708,419.252 95,418.5C 94.0561,421.347 94.5561,423.847 96.5,426C 95.7476,426.671 95.4142,427.504 95.5,428.5C 78.9634,413.425 65.2967,396.092 54.5,376.5C 55.3238,372.688 55.8238,368.688 56,364.5C 56.3826,365.056 56.8826,365.389 57.5,365.5 Z"/></g>
<g><path style="opacity:1" fill="#a6773a" d="M 405.5,399.5 C 406.5,399.5 407.5,399.5 408.5,399.5C 361.322,447.895 303.988,469.229 236.5,463.5C 249.504,463.667 262.504,463.5 275.5,463C 265.325,462.83 255.325,462.33 245.5,461.5C 308.116,464.194 361.449,443.527 405.5,399.5 Z"/></g>
<g><path style="opacity:0.978" fill="#c99445" d="M 458.5,367.5 C 458.177,371.226 458.511,374.893 459.5,378.5C 460.213,376.565 461.213,376.232 462.5,377.5C 459.358,383.112 456.191,388.779 453,394.5C 444.758,405.25 435.925,415.583 426.5,425.5C 421.065,431.277 415.065,436.277 408.5,440.5C 406.758,437.855 406.091,434.855 406.5,431.5C 427.656,413.14 444.989,391.806 458.5,367.5 Z"/></g>
<g><path style="opacity:0.958" fill="#deb65a" d="M 97.5,419.5 C 106.501,427.984 115.834,435.984 125.5,443.5C 124.5,443.5 123.5,443.5 122.5,443.5C 122.969,446.339 122.969,449.005 122.5,451.5C 112.593,444.929 103.593,437.262 95.5,428.5C 95.4142,427.504 95.7476,426.671 96.5,426C 94.5561,423.847 94.0561,421.347 95,418.5C 95.6708,419.252 96.5041,419.586 97.5,419.5 Z"/></g>
<g><path style="opacity:1" fill="#d3b45d" d="M 111.5,399.5 C 148.252,436.835 192.919,457.502 245.5,461.5C 255.325,462.33 265.325,462.83 275.5,463C 262.504,463.5 249.504,463.667 236.5,463.5C 232.081,462.028 227.414,461.362 222.5,461.5C 178.505,453.509 141.172,433.509 110.5,401.5C 110.328,400.508 110.662,399.842 111.5,399.5 Z"/></g>
<g><path style="opacity:1" fill="#89733f" d="M 222.5,461.5 C 227.414,461.362 232.081,462.028 236.5,463.5C 231.586,463.638 226.919,462.972 222.5,461.5 Z"/></g>
<g><path style="opacity:0.984" fill="#b57c39" d="M 406.5,431.5 C 406.091,434.855 406.758,437.855 408.5,440.5C 405.915,443.789 402.915,446.622 399.5,449C 394.666,452.252 389.666,455.252 384.5,458C 382.86,459.395 381.36,460.895 380,462.5C 379.667,462.167 379.333,461.833 379,461.5C 365.499,469.448 351.499,476.448 337,482.5C 336.617,481.944 336.117,481.611 335.5,481.5C 334.659,479.621 334.325,477.621 334.5,475.5C 330.462,475.958 326.462,476.624 322.5,477.5C 353.728,467.889 381.728,452.556 406.5,431.5 Z"/></g>
<g><path style="opacity:0.995" fill="#f0cf68" d="M 125.5,443.5 C 156.043,465.427 190.043,479.093 227.5,484.5C 226.574,487.066 226.24,489.399 226.5,491.5C 202.954,488.93 180.454,482.596 159,472.5C 146.512,466.815 134.345,459.815 122.5,451.5C 122.969,449.005 122.969,446.339 122.5,443.5C 123.5,443.5 124.5,443.5 125.5,443.5 Z"/></g>
<g><path style="opacity:0.936" fill="#c69346" d="M 335.5,481.5 C 317.087,488.511 298.42,492.511 279.5,493.5C 281.148,491.544 281.815,489.211 281.5,486.5C 279.5,486.5 277.5,486.5 275.5,486.5C 275.5,486.167 275.5,485.833 275.5,485.5C 291.484,484.636 307.15,481.97 322.5,477.5C 326.462,476.624 330.462,475.958 334.5,475.5C 334.325,477.621 334.659,479.621 335.5,481.5 Z"/></g>
<g><path style="opacity:0.871" fill="#5c4c2b" d="M 230.5,484.5 C 245.484,485.333 260.484,485.666 275.5,485.5C 275.5,485.833 275.5,486.167 275.5,486.5C 262.829,486.667 250.162,486.5 237.5,486C 234.964,485.814 232.631,485.314 230.5,484.5 Z"/></g>
<g><path style="opacity:0.985" fill="#d7ad56" d="M 227.5,484.5 C 228.5,484.5 229.5,484.5 230.5,484.5C 232.631,485.314 234.964,485.814 237.5,486C 250.162,486.5 262.829,486.667 275.5,486.5C 277.5,486.5 279.5,486.5 281.5,486.5C 281.815,489.211 281.148,491.544 279.5,493.5C 275.068,493.447 270.734,494.114 266.5,495.5C 260.82,494.286 255.154,494.286 249.5,495.5C 247.833,494.833 246.167,494.167 244.5,493.5C 240.082,493.958 235.748,493.958 231.5,493.5C 229.664,492.972 227.997,492.306 226.5,491.5C 226.24,489.399 226.574,487.066 227.5,484.5 Z"/></g>
</svg>
